Coordinates
version=1
nRows=5
nColumns=40
inDegrees=yes

Units are S.I. units (second, meters, Newtons, ...)
If the header above contains a line with 'inDegrees', this indicates whether rotational values are in degrees (yes) or radians (no).

endheader
time	pelvis_tilt	pelvis_list	pelvis_rotation	pelvis_tx	pelvis_ty	pelvis_tz	hip_flexion_r	hip_adduction_r	hip_rotation_r	knee_angle_r	knee_angle_r_beta	ankle_angle_r	subtalar_angle_r	mtp_angle_r	hip_flexion_l	hip_adduction_l	hip_rotation_l	knee_angle_l	knee_angle_l_beta	ankle_angle_l	subtalar_angle_l	mtp_angle_l	lumbar_extension	lumbar_bending	lumbar_rotation	arm_flex_r	arm_add_r	arm_rot_r	elbow_flex_r	pro_sup_r	wrist_flex_r	wrist_dev_r	arm_flex_l	arm_add_l	arm_rot_l	elbow_flex_l	pro_sup_l	wrist_flex_l	wrist_dev_l
      2.16000000	    -20.94991435	      2.86463029	     -3.70625646	     -0.34929594	      0.94616542	     -1.07307947	     20.62448310	     -7.71185791	      5.35572366	     68.57917028	      1.19693232	     -5.29184391	      0.00000000	      0.00000000	     48.57003834	      3.91043272	     -2.73334633	     47.94056721	      0.83672074	      8.83927410	      0.00000000	      0.00000000	      3.67765926	     -9.39629272	      6.31454673	     89.96868727	     -8.39678309	     14.50691747	     48.87891785	     48.79891900	      0.00000000	      0.00000000	     89.95686472	    -20.42631604	      8.14925864	     47.97718978	     79.53694740	      0.00000000	      0.00000000
      2.16500000	    -20.98769546	      2.92011858	     -3.70564503	     -0.34955632	      0.94550471	     -1.07307309	     20.73229220	     -7.73274680	      5.46085094	     68.72308960	      1.19944419	     -5.17388065	      0.00000000	      0.00000000	     48.70527304	      3.98389005	     -2.68715938	     48.09450374	      0.83940744	      8.92929620	      0.00000000	      0.00000000	      3.67630069	     -9.44397044	      6.32427412	     89.96876569	     -8.33701888	     14.46130860	     48.98001168	     48.10908109	      0.00000000	      0.00000000	     89.95694551	    -20.40267979	      8.39669401	     48.07678554	     75.88737188	      0.00000000	      0.00000000
      2.17000000	    -21.01395257	      2.87721668	     -3.72371500	     -0.34980928	      0.94490126	     -1.07302931	     20.79225098	     -7.62688632	      5.57321846	     68.81662246	      1.20107664	     -5.01685717	      0.00000000	      0.00000000	     48.84050355	      3.96663926	     -2.59854200	     48.29458242	      0.84289947	      9.07109552	      0.00000000	      0.00000000	      3.66357122	     -9.38054491	      6.34732092	     89.96884344	     -8.25748679	     14.41719863	     49.03421380	     47.59554695	      0.00000000	      0.00000000	     89.95707134	    -20.34147941	      8.56502068	     48.15490272	     72.68679016	      0.00000000	      0.00000000
      2.17500000	    -21.04121486	      2.85862349	     -3.74054969	     -0.35004016	      0.94424211	     -1.07299848	     20.87844051	     -7.58190856	      5.62154535	     68.93936311	      1.20321887	     -4.89014871	      0.00000000	      0.00000000	     48.98278112	      3.95639046	     -2.54878586	     48.51030157	      0.84666448	      9.18772735	      0.00000000	      0.00000000	      3.64717450	     -9.32383371	      6.37509542	     89.96893153	     -8.18830289	     14.37867650	     49.08239310	     47.25363277	      0.00000000	      0.00000000	     89.95708773	    -20.34218197	      8.70653172	     48.20930557	     70.41371316	      0.00000000	      0.00000000
      2.18000000	    -21.10732704	      2.86202936	     -3.76428543	     -0.35022052	      0.94365790	     -1.07292481	     20.99177826	     -7.50843226	      5.78419843	     69.01321283	      1.20450779	     -4.73854285	      0.00000000	      0.00000000	     49.12822296	      3.98934115	     -2.40246148	     48.63178439	      0.84878476	      9.31882515	      0.00000000	      0.00000000	      3.66918745	     -9.27568936	      6.38459842	     89.96896597	     -8.08338746	     14.31116122	     49.08589908	     48.23334700	      0.00000000	      0.00000000	     89.95722730	    -20.52289400	      8.01137937	     48.06013395	     79.45318969	      0.00000000	      0.00000000
